<?xml version="1.0" encoding="UTF-8"?>
<!DOCTYPE svg PUBLIC "-//W3C//DTD SVG 1.1//EN" "http://www.w3.org/Graphics/SVG/1.1/DTD/svg11.dtd">
<svg xmlns="http://www.w3.org/2000/svg" version="1.1" width="905px" height="161px" style="shape-rendering:geometricPrecision; text-rendering:geometricPrecision; image-rendering:optimizeQuality; fill-rule:evenodd; clip-rule:evenodd" xmlns:xlink="http://www.w3.org/1999/xlink">
<g><path style="opacity:1" fill="#1f4d8c" d="M -0.5,-0.5 C 56.8333,-0.5 114.167,-0.5 171.5,-0.5C 171.5,4.83333 171.5,10.1667 171.5,15.5C 175.182,15.3347 178.848,15.5014 182.5,16C 169.993,16.1692 157.66,16.6692 145.5,17.5C 145.5,60.1667 145.5,102.833 145.5,145.5C 152.5,145.5 159.5,145.5 166.5,145.5C 166.5,132.5 166.5,119.5 166.5,106.5C 172.176,106.334 177.843,106.501 183.5,107C 179.514,107.499 175.514,107.666 171.5,107.5C 171.5,125.167 171.5,142.833 171.5,160.5C 114.167,160.5 56.8333,160.5 -0.5,160.5C -0.5,106.833 -0.5,53.1667 -0.5,-0.5 Z"/></g>
<g><path style="opacity:1" fill="#24518c" d="M 171.5,-0.5 C 217.167,-0.5 262.833,-0.5 308.5,-0.5C 308.5,4.83333 308.5,10.1667 308.5,15.5C 311.85,15.335 315.183,15.5017 318.5,16C 304.994,16.169 291.66,16.669 278.5,17.5C 278.5,60.1667 278.5,102.833 278.5,145.5C 285.5,145.5 292.5,145.5 299.5,145.5C 299.5,128.167 299.5,110.833 299.5,93.5C 303.603,92.7691 307.103,93.7691 310,96.5C 311.38,102.416 312.213,108.416 312.5,114.5C 312.664,117.187 312.497,119.854 312,122.5C 311.137,117.173 310.303,111.839 309.5,106.5C 308.5,124.488 308.167,142.488 308.5,160.5C 262.833,160.5 217.167,160.5 171.5,160.5C 171.5,142.833 171.5,125.167 171.5,107.5C 175.514,107.666 179.514,107.499 183.5,107C 177.843,106.501 172.176,106.334 166.5,106.5C 172.653,105.672 178.987,105.172 185.5,105C 191.501,103.664 195.668,100.164 198,94.5C 199.713,89.6036 201.046,84.6036 202,79.5C 202.913,64.7867 202.58,50.12 201,35.5C 199.324,26.4953 194.158,20.662 185.5,18C 172.171,17.5001 158.837,17.3334 145.5,17.5C 157.66,16.6692 169.993,16.1692 182.5,16C 178.848,15.5014 175.182,15.3347 171.5,15.5C 171.5,10.1667 171.5,4.83333 171.5,-0.5 Z"/></g>
<g><path style="opacity:1" fill="#2b558d" d="M 308.5,-0.5 C 364.833,-0.5 421.167,-0.5 477.5,-0.5C 477.5,4.83333 477.5,10.1667 477.5,15.5C 483.842,15.3338 490.175,15.5005 496.5,16C 488.989,16.1712 481.655,16.6712 474.5,17.5C 471.373,50.6678 468.373,84.0012 465.5,117.5C 462.723,84.1725 460.056,50.8392 457.5,17.5C 449.804,17.1692 442.138,17.5025 434.5,18.5C 439.285,60.8034 443.952,103.137 448.5,145.5C 459.5,145.5 470.5,145.5 481.5,145.5C 482.29,144.391 482.79,143.058 483,141.5C 484.509,146.493 482.675,148.493 477.5,147.5C 477.5,151.833 477.5,156.167 477.5,160.5C 421.167,160.5 364.833,160.5 308.5,160.5C 308.167,142.488 308.5,124.488 309.5,106.5C 310.303,111.839 311.137,117.173 312,122.5C 312.497,119.854 312.664,117.187 312.5,114.5C 313.333,124.391 314.5,134.391 316,144.5C 323.442,145.813 330.942,145.813 338.5,144.5C 336.801,134.543 335.468,124.543 334.5,114.5C 334.556,109.269 333.889,104.269 332.5,99.5C 332.145,94.1242 330.145,89.4575 326.5,85.5C 329.882,83.2805 332.382,80.2805 334,76.5C 337.66,60.0448 337.326,43.7115 333,27.5C 330.28,22.4488 326.113,19.2822 320.5,18C 306.504,17.5001 292.504,17.3334 278.5,17.5C 291.66,16.669 304.994,16.169 318.5,16C 315.183,15.5017 311.85,15.335 308.5,15.5C 308.5,10.1667 308.5,4.83333 308.5,-0.5 Z"/></g>
<g><path style="opacity:1" fill="#2f578c" d="M 477.5,-0.5 C 509.5,-0.5 541.5,-0.5 573.5,-0.5C 573.5,53.1667 573.5,106.833 573.5,160.5C 541.5,160.5 509.5,160.5 477.5,160.5C 477.5,156.167 477.5,151.833 477.5,147.5C 482.675,148.493 484.509,146.493 483,141.5C 482.79,143.058 482.29,144.391 481.5,145.5C 483.441,128.687 485.441,112.021 487.5,95.5C 488.957,90.402 489.624,85.0687 489.5,79.5C 491.414,59.1135 493.747,38.7801 496.5,18.5C 489.197,17.5027 481.863,17.1694 474.5,17.5C 481.655,16.6712 488.989,16.1712 496.5,16C 490.175,15.5005 483.842,15.3338 477.5,15.5C 477.5,10.1667 477.5,4.83333 477.5,-0.5 Z"/></g>
<g><path style="opacity:1" fill="#31598c" d="M 573.5,-0.5 C 592.833,-0.5 612.167,-0.5 631.5,-0.5C 632.151,15.2031 631.484,30.5364 629.5,45.5C 626.711,36.4653 623.711,27.4653 620.5,18.5C 613.197,17.5027 605.863,17.1694 598.5,17.5C 598.5,60.1667 598.5,102.833 598.5,145.5C 604.5,145.5 610.5,145.5 616.5,145.5C 617.167,119.5 617.833,93.5 618.5,67.5C 624.109,82.3885 629.443,97.3885 634.5,112.5C 634.649,113.552 634.483,114.552 634,115.5C 633.529,113.754 632.862,112.087 632,110.5C 631.5,127.163 631.333,143.83 631.5,160.5C 612.167,160.5 592.833,160.5 573.5,160.5C 573.5,106.833 573.5,53.1667 573.5,-0.5 Z"/></g>
<g><path style="opacity:1" fill="#385d8d" d="M 631.5,-0.5 C 722.5,-0.5 813.5,-0.5 904.5,-0.5C 904.5,53.1667 904.5,106.833 904.5,160.5C 813.5,160.5 722.5,160.5 631.5,160.5C 631.333,143.83 631.5,127.163 632,110.5C 632.862,112.087 633.529,113.754 634,115.5C 634.483,114.552 634.649,113.552 634.5,112.5C 638.676,123.019 642.676,133.686 646.5,144.5C 649.962,145.482 653.629,145.815 657.5,145.5C 657.5,102.833 657.5,60.1667 657.5,17.5C 651.167,17.5 644.833,17.5 638.5,17.5C 637.833,34.5 637.167,51.5 636.5,68.5C 634.369,60.7731 632.036,53.1065 629.5,45.5C 631.484,30.5364 632.151,15.2031 631.5,-0.5 Z"/></g>
<g><path style="opacity:1" fill="#fcfcfd" d="M 226.5,15.5 C 234.507,15.3336 242.507,15.5003 250.5,16C 261.685,19.1506 267.518,26.6506 268,38.5C 269.979,66.5029 269.979,94.5029 268,122.5C 267.088,128.395 265.422,134.062 263,139.5C 260.072,143.381 256.239,145.881 251.5,147C 224.824,153.783 211.324,143.616 211,116.5C 210.333,91.8333 210.333,67.1667 211,42.5C 210.703,30.1076 215.869,21.1076 226.5,15.5 Z"/></g>
<g><path style="opacity:1" fill="#fafbfc" d="M 517.5,15.5 C 525.507,15.3336 533.507,15.5003 541.5,16C 549.539,17.7041 554.706,22.5374 557,30.5C 557.539,33.5285 558.206,36.5285 559,39.5C 559.667,65.8333 559.667,92.1667 559,118.5C 559.026,128.265 555.86,136.765 549.5,144C 546.637,145.399 543.637,146.399 540.5,147C 517.897,153.476 505.064,145.309 502,122.5C 500.021,94.5029 500.021,66.5029 502,38.5C 502.747,27.6246 507.914,19.9579 517.5,15.5 Z"/></g>
<g><path style="opacity:1" fill="#fcfcfd" d="M 883.5,56.5 C 877.833,56.5 872.167,56.5 866.5,56.5C 866.821,51.3054 866.487,46.3054 865.5,41.5C 865.262,38.8517 863.928,37.0183 861.5,36C 857.409,34.7728 853.909,35.6061 851,38.5C 849.409,45.392 849.076,52.392 850,59.5C 851.458,61.96 853.291,64.1266 855.5,66C 863.167,70.3333 870.833,74.6667 878.5,79C 880.7,81.2336 882.533,83.7336 884,86.5C 886.181,102.554 885.848,118.554 883,134.5C 881.212,139.92 877.712,143.753 872.5,146C 863.896,147.542 855.23,147.876 846.5,147C 837.878,144.972 833.045,139.472 832,130.5C 831.503,128.19 831.337,125.857 831.5,123.5C 831.207,117.107 831.54,110.773 832.5,104.5C 837.792,103.505 843.125,103.172 848.5,103.5C 848.182,108.032 848.515,112.366 849.5,116.5C 850.2,126.535 855.033,129.202 864,124.5C 866.399,116.328 867.066,107.994 866,99.5C 864.542,97.04 862.709,94.8734 860.5,93C 853.167,88.6667 845.833,84.3333 838.5,80C 835.894,78.0616 834.061,75.5616 833,72.5C 831.075,64.6327 830.242,56.6327 830.5,48.5C 828.335,20.7131 841.002,9.87973 868.5,16C 877.911,18.0778 883.078,23.9112 884,33.5C 884.647,41.1894 884.48,48.8561 883.5,56.5 Z"/></g>
<g><path style="opacity:1" fill="#7c96b9" d="M 396.5,38.5 C 396.5,31.5 396.5,24.5 396.5,17.5C 377.833,17.5 359.167,17.5 340.5,17.5C 340.5,24.5 340.5,31.5 340.5,38.5C 339.508,31.3524 339.175,24.0191 339.5,16.5C 358.833,16.5 378.167,16.5 397.5,16.5C 397.825,24.0191 397.492,31.3524 396.5,38.5 Z"/></g>
<g><path style="opacity:1" fill="#fdfdfe" d="M 17.5,17.5 C 30.8375,17.3334 44.1708,17.5001 57.5,18C 67.2842,19.7841 73.1176,25.6175 75,35.5C 76.5922,62.1383 76.9255,88.805 76,115.5C 76.0204,123.729 74.0204,131.395 70,138.5C 66.4574,142.574 61.9574,144.741 56.5,145C 43.5043,145.5 30.5043,145.667 17.5,145.5C 17.5,102.833 17.5,60.1667 17.5,17.5 Z"/></g>
<g><path style="opacity:1" fill="#fefefe" d="M 135.5,17.5 C 135.5,24.5 135.5,31.5 135.5,38.5C 126.167,38.5 116.833,38.5 107.5,38.5C 107.5,48.8333 107.5,59.1667 107.5,69.5C 116.318,70.4933 125.318,70.8266 134.5,70.5C 134.5,76.8333 134.5,83.1667 134.5,89.5C 125.318,89.1734 116.318,89.5067 107.5,90.5C 107.5,101.5 107.5,112.5 107.5,123.5C 116.5,123.5 125.5,123.5 134.5,123.5C 134.5,130.833 134.5,138.167 134.5,145.5C 118.833,145.5 103.167,145.5 87.5,145.5C 87.5,102.833 87.5,60.1667 87.5,17.5C 103.5,17.5 119.5,17.5 135.5,17.5 Z"/></g>
<g><path style="opacity:1" fill="#fbfcfd" d="M 396.5,38.5 C 390.833,38.5 385.167,38.5 379.5,38.5C 379.5,74.1667 379.5,109.833 379.5,145.5C 372.5,145.5 365.5,145.5 358.5,145.5C 358.5,109.833 358.5,74.1667 358.5,38.5C 352.5,38.5 346.5,38.5 340.5,38.5C 340.5,31.5 340.5,24.5 340.5,17.5C 359.167,17.5 377.833,17.5 396.5,17.5C 396.5,24.5 396.5,31.5 396.5,38.5 Z"/></g>
<g><path style="opacity:1" fill="#ecf0f4" d="M 669.5,17.5 C 669.5,59.8333 669.5,102.167 669.5,144.5C 684.833,144.5 700.167,144.5 715.5,144.5C 715.5,137.833 715.5,131.167 715.5,124.5C 706.651,124.826 697.984,124.493 689.5,123.5C 698.5,123.5 707.5,123.5 716.5,123.5C 716.5,130.833 716.5,138.167 716.5,145.5C 700.5,145.5 684.5,145.5 668.5,145.5C 668.168,102.663 668.501,59.9967 669.5,17.5 Z"/></g>
<g><path style="opacity:1" fill="#fefefe" d="M 669.5,17.5 C 685.167,17.5 700.833,17.5 716.5,17.5C 716.5,24.5 716.5,31.5 716.5,38.5C 707.5,38.5 698.5,38.5 689.5,38.5C 689.5,48.8333 689.5,59.1667 689.5,69.5C 697.984,70.493 706.651,70.8264 715.5,70.5C 715.5,76.8333 715.5,83.1667 715.5,89.5C 706.5,89.5 697.5,89.5 688.5,89.5C 688.172,101.012 688.505,112.346 689.5,123.5C 697.984,124.493 706.651,124.826 715.5,124.5C 715.5,131.167 715.5,137.833 715.5,144.5C 700.167,144.5 684.833,144.5 669.5,144.5C 669.5,102.167 669.5,59.8333 669.5,17.5 Z"/></g>
<g><path style="opacity:1" fill="#93a9c7" d="M 135.5,17.5 C 119.5,17.5 103.5,17.5 87.5,17.5C 87.5,60.1667 87.5,102.833 87.5,145.5C 87.1667,145.5 86.8333,145.5 86.5,145.5C 86.5,102.5 86.5,59.5 86.5,16.5C 103.009,16.1702 119.342,16.5036 135.5,17.5 Z"/></g>
<g><path style="opacity:1" fill="#fbfcfd" d="M 145.5,17.5 C 158.837,17.3334 172.171,17.5001 185.5,18C 194.158,20.662 199.324,26.4953 201,35.5C 202.58,50.12 202.913,64.7867 202,79.5C 201.046,84.6036 199.713,89.6036 198,94.5C 195.668,100.164 191.501,103.664 185.5,105C 178.987,105.172 172.653,105.672 166.5,106.5C 166.5,119.5 166.5,132.5 166.5,145.5C 159.5,145.5 152.5,145.5 145.5,145.5C 145.5,102.833 145.5,60.1667 145.5,17.5 Z"/></g>
<g><path style="opacity:1" fill="#fbfcfd" d="M 278.5,17.5 C 292.504,17.3334 306.504,17.5001 320.5,18C 326.113,19.2822 330.28,22.4488 333,27.5C 337.326,43.7115 337.66,60.0448 334,76.5C 332.382,80.2805 329.882,83.2805 326.5,85.5C 330.145,89.4575 332.145,94.1242 332.5,99.5C 332.444,104.731 333.111,109.731 334.5,114.5C 335.468,124.543 336.801,134.543 338.5,144.5C 330.942,145.813 323.442,145.813 316,144.5C 314.5,134.391 313.333,124.391 312.5,114.5C 312.213,108.416 311.38,102.416 310,96.5C 307.103,93.7691 303.603,92.7691 299.5,93.5C 299.5,110.833 299.5,128.167 299.5,145.5C 292.5,145.5 285.5,145.5 278.5,145.5C 278.5,102.833 278.5,60.1667 278.5,17.5 Z"/></g>
<g><path style="opacity:1" fill="#eaedf3" d="M 405.5,17.5 C 405.5,59.8333 405.5,102.167 405.5,144.5C 412.167,144.5 418.833,144.5 425.5,144.5C 418.687,145.491 411.687,145.825 404.5,145.5C 404.168,102.663 404.501,59.9967 405.5,17.5 Z"/></g>
<g><path style="opacity:1" fill="#fefefe" d="M 405.5,17.5 C 412.167,17.5 418.833,17.5 425.5,17.5C 425.5,59.8333 425.5,102.167 425.5,144.5C 418.833,144.5 412.167,144.5 405.5,144.5C 405.5,102.167 405.5,59.8333 405.5,17.5 Z"/></g>
<g><path style="opacity:1" fill="#fbfcfd" d="M 474.5,17.5 C 481.863,17.1694 489.197,17.5027 496.5,18.5C 493.747,38.7801 491.414,59.1135 489.5,79.5C 488.194,84.6161 487.527,89.9494 487.5,95.5C 485.441,112.021 483.441,128.687 481.5,145.5C 470.5,145.5 459.5,145.5 448.5,145.5C 443.952,103.137 439.285,60.8034 434.5,18.5C 442.138,17.5025 449.804,17.1692 457.5,17.5C 460.056,50.8392 462.723,84.1725 465.5,117.5C 468.373,84.0012 471.373,50.6678 474.5,17.5 Z"/></g>
<g><path style="opacity:1" fill="#fefefe" d="M 629.5,45.5 C 632.036,53.1065 634.369,60.7731 636.5,68.5C 637.11,69.391 637.443,70.391 637.5,71.5C 637.56,72.0431 637.893,72.3764 638.5,72.5C 639.5,54.5123 639.833,36.5123 639.5,18.5C 645.167,18.5 650.833,18.5 656.5,18.5C 656.5,60.5 656.5,102.5 656.5,144.5C 653.167,144.5 649.833,144.5 646.5,144.5C 642.676,133.686 638.676,123.019 634.5,112.5C 629.443,97.3885 624.109,82.3885 618.5,67.5C 618.44,66.9569 618.107,66.6236 617.5,66.5C 616.5,92.8249 616.167,119.158 616.5,145.5C 610.5,145.5 604.5,145.5 598.5,145.5C 598.5,102.833 598.5,60.1667 598.5,17.5C 605.863,17.1694 613.197,17.5027 620.5,18.5C 623.711,27.4653 626.711,36.4653 629.5,45.5 Z"/></g>
<g><path style="opacity:1" fill="#4d6f9b" d="M 638.5,17.5 C 638.83,35.6744 638.497,53.6744 637.5,71.5C 637.443,70.391 637.11,69.391 636.5,68.5C 637.167,51.5 637.833,34.5 638.5,17.5 Z"/></g>
<g><path style="opacity:1" fill="#f0f2f6" d="M 638.5,17.5 C 644.833,17.5 651.167,17.5 657.5,17.5C 657.5,60.1667 657.5,102.833 657.5,145.5C 653.629,145.815 649.962,145.482 646.5,144.5C 649.833,144.5 653.167,144.5 656.5,144.5C 656.5,102.5 656.5,60.5 656.5,18.5C 650.833,18.5 645.167,18.5 639.5,18.5C 639.833,36.5123 639.5,54.5123 638.5,72.5C 637.893,72.3764 637.56,72.0431 637.5,71.5C 638.497,53.6744 638.83,35.6744 638.5,17.5 Z"/></g>
<g><path style="opacity:1" fill="#fcfcfd" d="M 753.5,110.5 C 754.889,105.731 755.556,100.731 755.5,95.5C 757.372,75.7367 759.705,56.07 762.5,36.5C 763.957,31.402 764.624,26.0687 764.5,20.5C 764.5,19.5 764.5,18.5 764.5,17.5C 771.833,17.5 779.167,17.5 786.5,17.5C 786.5,20.5 786.5,23.5 786.5,26.5C 786.444,31.7312 787.111,36.7312 788.5,41.5C 789.75,50.0979 790.75,58.7646 791.5,67.5C 791.444,72.7312 792.111,77.7312 793.5,82.5C 794.758,93.155 796.092,103.822 797.5,114.5C 800.246,82.1972 802.579,49.8639 804.5,17.5C 811.167,17.5 817.833,17.5 824.5,17.5C 821.014,60.157 817.68,102.824 814.5,145.5C 804.5,145.5 794.5,145.5 784.5,145.5C 781.629,116.455 778.295,87.4551 774.5,58.5C 770.906,87.4449 767.906,116.445 765.5,145.5C 755.167,145.5 744.833,145.5 734.5,145.5C 732.048,102.749 728.715,60.0825 724.5,17.5C 731.5,17.5 738.5,17.5 745.5,17.5C 747.626,49.8492 749.959,82.1825 752.5,114.5C 753.429,113.311 753.762,111.978 753.5,110.5 Z"/></g>
<g><path style="opacity:1" fill="#c7d1de" d="M 764.5,20.5 C 764.624,26.0687 763.957,31.402 762.5,36.5C 762.376,30.9313 763.043,25.598 764.5,20.5 Z"/></g>
<g><path style="opacity:1" fill="#c4cedd" d="M 786.5,26.5 C 787.889,31.2688 788.556,36.2688 788.5,41.5C 787.111,36.7312 786.444,31.7312 786.5,26.5 Z"/></g>
<g><path style="opacity:1" fill="#2c558f" d="M 236.5,35.5 C 244.374,34.8732 248.208,38.5398 248,46.5C 248.667,68.5 248.667,90.5 248,112.5C 247.939,117.276 246.439,121.443 243.5,125C 240.833,125.667 238.167,125.667 235.5,125C 234.299,124.097 233.465,122.931 233,121.5C 231.939,116.896 231.273,112.229 231,107.5C 230.333,87.1667 230.333,66.8333 231,46.5C 231.289,41.922 233.122,38.2554 236.5,35.5 Z"/></g>
<g><path style="opacity:1" fill="#31588d" d="M 525.5,36.5 C 528.85,36.335 532.183,36.5017 535.5,37C 536.893,38.1711 537.727,39.6711 538,41.5C 538.667,67.1667 538.667,92.8333 538,118.5C 537.564,123.104 535.064,125.437 530.5,125.5C 528.192,125.635 526.192,124.969 524.5,123.5C 523.103,121.018 522.269,118.352 522,115.5C 521.333,92.5 521.333,69.5 522,46.5C 522.013,42.6955 523.179,39.3622 525.5,36.5 Z"/></g>
<g><path style="opacity:1" fill="#26528c" d="M 299.5,38.5 C 303.514,38.3345 307.514,38.5012 311.5,39C 312,39.5 312.5,40 313,40.5C 314.116,45.5583 314.616,50.7249 314.5,56C 314.333,60.5 314.167,65 314,69.5C 313.426,71.492 312.259,72.992 310.5,74C 306.848,74.4986 303.182,74.6653 299.5,74.5C 299.5,62.5 299.5,50.5 299.5,38.5 Z"/></g>
<g><path style="opacity:1" fill="#24508f" d="M 37.5,38.5 C 41.8461,38.3343 46.1794,38.501 50.5,39C 52.8147,40.1094 54.3147,41.9427 55,44.5C 55.1667,56.5 55.3333,68.5 55.5,80.5C 55.639,93.5663 55.139,106.566 54,119.5C 53.5,121.333 52.3333,122.5 50.5,123C 46.1794,123.499 41.8461,123.666 37.5,123.5C 37.5,95.1667 37.5,66.8333 37.5,38.5 Z"/></g>
<g><path style="opacity:1" fill="#4e73a4" d="M 135.5,38.5 C 126.682,39.4933 117.682,39.8266 108.5,39.5C 108.5,49.5 108.5,59.5 108.5,69.5C 108.167,69.5 107.833,69.5 107.5,69.5C 107.5,59.1667 107.5,48.8333 107.5,38.5C 116.833,38.5 126.167,38.5 135.5,38.5 Z"/></g>
<g><path style="opacity:1" fill="#23508d" d="M 166.5,38.5 C 171.849,37.4614 176.349,38.7947 180,42.5C 181.869,54.4651 181.869,66.4651 180,78.5C 179.529,80.2464 178.862,81.913 178,83.5C 174.27,84.4601 170.437,84.7935 166.5,84.5C 166.5,69.1667 166.5,53.8333 166.5,38.5 Z"/></g>
<g><path style="opacity:1" fill="#bfcbda" d="M 865.5,41.5 C 866.487,46.3054 866.821,51.3054 866.5,56.5C 872.167,56.5 877.833,56.5 883.5,56.5C 877.69,57.4896 871.69,57.8229 865.5,57.5C 865.5,52.1667 865.5,46.8333 865.5,41.5 Z"/></g>
<g><path style="opacity:1" fill="#c3cedd" d="M 618.5,67.5 C 617.833,93.5 617.167,119.5 616.5,145.5C 616.167,119.158 616.5,92.8249 617.5,66.5C 618.107,66.6236 618.44,66.9569 618.5,67.5 Z"/></g>
<g><path style="opacity:1" fill="#ccd5e2" d="M 689.5,69.5 C 698.5,69.5 707.5,69.5 716.5,69.5C 716.5,76.1667 716.5,82.8333 716.5,89.5C 716.167,89.5 715.833,89.5 715.5,89.5C 715.5,83.1667 715.5,76.8333 715.5,70.5C 706.651,70.8264 697.984,70.493 689.5,69.5 Z"/></g>
<g><path style="opacity:1" fill="#c0cbda" d="M 791.5,67.5 C 792.889,72.2688 793.556,77.2688 793.5,82.5C 792.111,77.7312 791.444,72.7312 791.5,67.5 Z"/></g>
<g><path style="opacity:1" fill="#617da7" d="M 489.5,79.5 C 489.624,85.0687 488.957,90.402 487.5,95.5C 487.527,89.9494 488.194,84.6161 489.5,79.5 Z"/></g>
<g><path style="opacity:1" fill="#8ca4c4" d="M 107.5,69.5 C 107.833,69.5 108.167,69.5 108.5,69.5C 117.5,69.5 126.5,69.5 135.5,69.5C 135.5,76.5 135.5,83.5 135.5,90.5C 126.5,90.5 117.5,90.5 108.5,90.5C 108.167,90.5 107.833,90.5 107.5,90.5C 116.318,89.5067 125.318,89.1734 134.5,89.5C 134.5,83.1667 134.5,76.8333 134.5,70.5C 125.318,70.8266 116.318,70.4933 107.5,69.5 Z"/></g>
<g><path style="opacity:1" fill="#5b7dab" d="M 107.5,90.5 C 107.833,90.5 108.167,90.5 108.5,90.5C 108.5,101.167 108.5,111.833 108.5,122.5C 117.5,122.5 126.5,122.5 135.5,122.5C 135.5,130.5 135.5,138.5 135.5,146.5C 118.991,146.83 102.658,146.496 86.5,145.5C 86.8333,145.5 87.1667,145.5 87.5,145.5C 103.167,145.5 118.833,145.5 134.5,145.5C 134.5,138.167 134.5,130.833 134.5,123.5C 125.5,123.5 116.5,123.5 107.5,123.5C 107.5,112.5 107.5,101.5 107.5,90.5 Z"/></g>
<g><path style="opacity:1" fill="#bbc7d8" d="M 715.5,89.5 C 715.833,89.5 716.167,89.5 716.5,89.5C 707.682,90.4933 698.682,90.8266 689.5,90.5C 689.5,101.5 689.5,112.5 689.5,123.5C 688.505,112.346 688.172,101.012 688.5,89.5C 697.5,89.5 706.5,89.5 715.5,89.5 Z"/></g>
<g><path style="opacity:1" fill="#cad4e0" d="M 849.5,116.5 C 848.515,112.366 848.182,108.032 848.5,103.5C 843.125,103.172 837.792,103.505 832.5,104.5C 831.54,110.773 831.207,117.107 831.5,123.5C 830.188,116.962 830.188,110.295 831.5,103.5C 837.463,102.504 843.463,102.171 849.5,102.5C 849.5,107.167 849.5,111.833 849.5,116.5 Z"/></g>
<g><path style="opacity:1" fill="#c2cede" d="M 332.5,99.5 C 333.889,104.269 334.556,109.269 334.5,114.5C 333.111,109.731 332.444,104.731 332.5,99.5 Z"/></g>
<g><path style="opacity:1" fill="#bcc8d8" d="M 755.5,95.5 C 755.556,100.731 754.889,105.731 753.5,110.5C 753.444,105.269 754.111,100.269 755.5,95.5 Z"/></g>
</svg>
